<?xml version="1.0" encoding="UTF-8"?>
<svg id="_레이어_24" data-name="레이어 24" xmlns="http://www.w3.org/2000/svg" viewBox="0 0 1571.06 1937.55">
  <path d="M803.43,611.77s-166.9-330.43-286.59-298.39,192.19,352.34,192.19,352.34c0,0-256.25-306.82-340.54-252.88-84.29,53.95,182.07,225.9,182.07,225.9l161.84,60.69s-77.55,74.24,33.72,179.57c111.27,105.33-214.1,127.57-239.39,355,0,0-72.49-47.37-60.69,53.79s96.09,175.33,146.67,101.15c0,0-11.8,34.88,136.55,30.08,148.35-4.8,310.2.45,310.2.45,0,0,146.67-22.11-53.95-67.62,0,0,75.86-155.1,8.43-178.7l18.54-52.26s184.37,114.64,78.7-33.72c0,0,238.79,41.92-78.7-118.01l-40.46-67.43-57.32,8.25s219.16-28.48,224.22-148.17c0,0,11.8-30.35-72.49-26.97,0,0-42.15-171.96-262.99-123.07Z" style="fill: none; stroke: #b20d6a; stroke-miterlimit: 10; stroke-width: 9px;"/>
</svg>